<svg xmlns="http://www.w3.org/2000/svg" width="1200" height="630" viewBox="0 0 1200 630">
  <defs>
    <linearGradient id="bg" x1="0%" y1="0%" x2="100%" y2="100%">
      <stop offset="0%" style="stop-color:#050505"/>
      <stop offset="100%" style="stop-color:#0d1525"/>
    </linearGradient>
    <linearGradient id="mg" x1="0%" y1="0%" x2="100%" y2="0%">
      <stop offset="0%" style="stop-color:#D946A6"/>
      <stop offset="100%" style="stop-color:#9333ea"/>
    </linearGradient>
    <linearGradient id="cy" x1="0%" y1="0%" x2="100%" y2="0%">
      <stop offset="0%" style="stop-color:#00d2ff"/>
      <stop offset="100%" style="stop-color:#0066cc"/>
    </linearGradient>
    <radialGradient id="glow" cx="50%" cy="45%" r="50%">
      <stop offset="0%" style="stop-color:#D946A6;stop-opacity:0.25"/>
      <stop offset="50%" style="stop-color:#00d2ff;stop-opacity:0.1"/>
      <stop offset="100%" style="stop-color:#050505;stop-opacity:0"/>
    </radialGradient>
  </defs>
  <!-- Background -->
  <rect width="1200" height="630" fill="url(#bg)"/>
  <rect width="1200" height="630" fill="url(#glow)"/>
  <!-- Grid lines -->
  <g opacity="0.04" stroke="#00d2ff" stroke-width="1">
    <line x1="0" y1="60" x2="1200" y2="60"/><line x1="0" y1="120" x2="1200" y2="120"/>
    <line x1="0" y1="180" x2="1200" y2="180"/><line x1="0" y1="240" x2="1200" y2="240"/>
    <line x1="0" y1="300" x2="1200" y2="300"/><line x1="0" y1="360" x2="1200" y2="360"/>
    <line x1="0" y1="420" x2="1200" y2="420"/><line x1="0" y1="480" x2="1200" y2="480"/>
    <line x1="0" y1="540" x2="1200" y2="540"/>
    <line x1="60" y1="0" x2="60" y2="630"/><line x1="120" y1="0" x2="120" y2="630"/>
    <line x1="180" y1="0" x2="180" y2="630"/><line x1="240" y1="0" x2="240" y2="630"/>
    <line x1="300" y1="0" x2="300" y2="630"/><line x1="360" y1="0" x2="360" y2="630"/>
    <line x1="420" y1="0" x2="420" y2="630"/><line x1="480" y1="0" x2="480" y2="630"/>
    <line x1="540" y1="0" x2="540" y2="630"/><line x1="600" y1="0" x2="600" y2="630"/>
    <line x1="660" y1="0" x2="660" y2="630"/><line x1="720" y1="0" x2="720" y2="630"/>
    <line x1="780" y1="0" x2="780" y2="630"/><line x1="840" y1="0" x2="840" y2="630"/>
    <line x1="900" y1="0" x2="900" y2="630"/><line x1="960" y1="0" x2="960" y2="630"/>
    <line x1="1020" y1="0" x2="1020" y2="630"/><line x1="1080" y1="0" x2="1080" y2="630"/>
    <line x1="1140" y1="0" x2="1140" y2="630"/>
  </g>
  <!-- Badge -->
  <rect x="360" y="80" width="480" height="36" rx="18" fill="rgba(0,255,65,0.08)" stroke="rgba(0,255,65,0.3)" stroke-width="1.5"/>
  <circle cx="386" cy="98" r="5" fill="#00FF41"/>
  <text x="600" y="104" text-anchor="middle" font-family="-apple-system,system-ui,sans-serif" font-size="13" font-weight="700" fill="#00FF41" letter-spacing="2">DIGITAL GUIDED SURGERY · INTERNATIONAL</text>
  <!-- Main title -->
  <text x="600" y="200" text-anchor="middle" font-family="-apple-system,system-ui,sans-serif" font-size="72" font-weight="900" fill="#e2e8f0">Surgical Guide</text>
  <text x="600" y="280" text-anchor="middle" font-family="-apple-system,system-ui,sans-serif" font-size="72" font-weight="900">
    <tspan fill="url(#mg)">Design</tspan>
    <tspan fill="#e2e8f0"> from </tspan>
    <tspan fill="url(#cy)">$65 USD</tspan>
  </text>
  <!-- Subtitle -->
  <text x="600" y="340" text-anchor="middle" font-family="-apple-system,system-ui,sans-serif" font-size="20" fill="#94a3b8">CoDiagnostiX · Exoplan · RealGuide · BlueSkyPlan · 3Shape Implant</text>
  <!-- Pills -->
  <rect x="150" y="390" width="200" height="40" rx="20" fill="rgba(255,255,255,0.06)" stroke="rgba(255,255,255,0.1)" stroke-width="1"/>
  <text x="250" y="415" text-anchor="middle" font-family="-apple-system,system-ui,sans-serif" font-size="14" font-weight="600" fill="#e2e8f0">From 4h turnaround</text>
  <rect x="380" y="390" width="220" height="40" rx="20" fill="rgba(255,255,255,0.06)" stroke="rgba(255,255,255,0.1)" stroke-width="1"/>
  <text x="490" y="415" text-anchor="middle" font-family="-apple-system,system-ui,sans-serif" font-size="14" font-weight="600" fill="#e2e8f0">CBCT viability check</text>
  <rect x="630" y="390" width="200" height="40" rx="20" fill="rgba(255,255,255,0.06)" stroke="rgba(255,255,255,0.1)" stroke-width="1"/>
  <text x="730" y="415" text-anchor="middle" font-family="-apple-system,system-ui,sans-serif" font-size="14" font-weight="600" fill="#e2e8f0">All implant systems</text>
  <rect x="860" y="390" width="180" height="40" rx="20" fill="rgba(255,255,255,0.06)" stroke="rgba(255,255,255,0.1)" stroke-width="1"/>
  <text x="950" y="415" text-anchor="middle" font-family="-apple-system,system-ui,sans-serif" font-size="14" font-weight="600" fill="#e2e8f0">STL delivery</text>
  <!-- Bottom bar -->
  <rect x="0" y="560" width="1200" height="70" fill="rgba(13,21,32,0.8)"/>
  <rect x="0" y="558" width="1200" height="2" fill="url(#mg)"/>
  <text x="60" y="602" font-family="-apple-system,system-ui,sans-serif" font-size="16" font-weight="800" fill="#D4AF37" letter-spacing="1">ALEJANDRO CARVAJAL</text>
  <text x="60" y="620" font-family="-apple-system,system-ui,sans-serif" font-size="12" fill="#94a3b8">CAD · CAM · DENTAL</text>
  <text x="1140" y="602" text-anchor="end" font-family="-apple-system,system-ui,sans-serif" font-size="14" fill="#94a3b8">alejandrocadcam.pages.dev</text>
  <text x="1140" y="620" text-anchor="end" font-family="-apple-system,system-ui,sans-serif" font-size="12" fill="#64748b">/guias-quirurgicas</text>
</svg>
